<?xml version="1.0" encoding="utf-8"?>
<svg version="1.1" width="3109.6917629869977" height="3239.207058691308" viewBox="825.871 1676.231 1458.62 85.99" xmlns="http://www.w3.org/2000/svg">
  <g transform="scale(11.960352934565378) translate(10, 10)">
    <defs id="SvgjsDefs62852">
      <linearGradient id="SvgjsLinearGradient62859">
        <stop id="SvgjsStop62860" stop-color="#26275f" offset="0"/>
        <stop id="SvgjsStop62861" stop-color="#813e96" offset="0.14"/>
        <stop id="SvgjsStop62862" stop-color="#2e64af" offset="0.29"/>
        <stop id="SvgjsStop62863" stop-color="#3faa49" offset="0.5"/>
        <stop id="SvgjsStop62864" stop-color="#f2e64a" offset="0.71"/>
        <stop id="SvgjsStop62865" stop-color="#f2903b" offset="0.86"/>
        <stop id="SvgjsStop62866" stop-color="#ed4533" offset="1"/>
      </linearGradient>
    </defs>
    <g id="SvgjsG62853" featurekey="rootContainer" transform="matrix(4.860267209572186,0,0,4.860267209572186,0,-8.96959834786333)" fill="#b100ff"/>
    <g id="SvgjsG62854" featurekey="PPkF4s-0" transform="matrix(1.1518083431410275,0,0,1.1518083431410275,18.848192480696497,97.3655847783297)" fill="#1bf3e5"/>
    <g id="SvgjsG62855" featurekey="uwAHB0-0" transform="matrix(0.46364074083124174,0,0,0.46364074083124174,58.221083524452155,127.44851199597865)" fill="url(#SvgjsLinearGradient62859)">
      <path d="M1.68 12.74 l5.2 0 l0 2.48 l-5.2 0 l0 -2.48 z M19.264000000000003 7.76 l9.1 0 l0 2.78 l-6.1 0 l0 1.96 l4.9 0 l0 2.78 l-4.9 0 l0 1.94 l6.1 0 l0 2.78 l-9.1 0 l0 -12.24 z M47.068 7.76 l3 0 l0 7.24 c0 3.18 -2.28 5.1 -5.3 5.1 c-3.1 0 -5.3 -2.04 -5.3 -5.1 l0 -7.24 l3 0 l0 7.24 c0 1.44 0.86 2.32 2.3 2.32 c1.48 0 2.3 -0.86 2.3 -2.32 l0 -7.24 z M71.352 16.58 l0 3.08 c-1.24 0.34 -2.48 0.48 -3.76 0.48 c-3.76 0 -6.28 -2.58 -6.28 -6.24 c0 -3.76 2.62 -6.24 6.26 -6.24 c1.26 0 2.58 0.1 3.78 0.48 l0 3.08 c-0.98 -0.48 -2.52 -0.66 -3.6 -0.66 c-2.44 0 -3.44 1 -3.44 3.32 c0 2.46 1.18 3.36 3.46 3.36 c1.02 0 2.68 -0.16 3.58 -0.66 z M95.89999999999999 7.76 l10.2 0 l0 2.78 l-3.6 0 l0 9.46 l-3 0 l0 -9.46 l-3.6 0 l0 -2.78 z M117.22399999999999 7.76 l9.1 0 l0 2.78 l-6.1 0 l0 1.96 l4.9 0 l0 2.78 l-4.9 0 l0 1.94 l6.1 0 l0 2.78 l-9.1 0 l0 -12.24 z M147.20799999999997 16.58 l0 3.08 c-1.24 0.34 -2.48 0.48 -3.76 0.48 c-3.76 0 -6.28 -2.58 -6.28 -6.24 c0 -3.76 2.62 -6.24 6.26 -6.24 c1.26 0 2.58 0.1 3.78 0.48 l0 3.08 c-0.98 -0.48 -2.52 -0.66 -3.6 -0.66 c-2.44 0 -3.44 1 -3.44 3.32 c0 2.46 1.18 3.36 3.46 3.36 c1.02 0 2.68 -0.16 3.58 -0.66 z M165.91199999999998 7.76 l3 0 l0 12.24 l-3 0 l0 -4.72 l-4.4 0 l0 4.72 l-3 0 l0 -12.24 l3 0 l0 4.74 l4.4 0 l0 -4.74 z M202.16 7.76 l3 0 l0 7.24 c0 3.18 -2.28 5.1 -5.3 5.1 c-3.1 0 -5.3 -2.04 -5.3 -5.1 l0 -7.24 l3 0 l0 7.24 c0 1.44 0.86 2.32 2.3 2.32 c1.48 0 2.3 -0.86 2.3 -2.32 l0 -7.24 z M216.82399999999996 20 l0 -12.24 l5.8 0 c2.28 0 4.22 1.72 4.22 4.02 c0 2.32 -2 4.02 -4.22 4.02 l-2.8 0 l0 4.2 l-3 0 z M222.62399999999997 10.54 l-2.8 0 l0 2.48 l2.8 0 c0.7 0 1.22 -0.54 1.22 -1.24 s-0.52 -1.24 -1.22 -1.24 z M237.30799999999996 19.7 l0 -2.82 c0.24 0.06 0.54 0.12 0.88 0.16 c0.34 0.06 0.7 0.1 1.08 0.12 s0.76 0.04 1.16 0.06 s0.78 0.04 1.12 0.04 c0.94 0 1.6 -0.06 2 -0.16 c0.38 -0.1 0.58 -0.28 0.58 -0.56 c0 -0.24 -0.18 -0.42 -0.36 -0.56 c-0.66 -0.44 -1.44 -0.62 -2.22 -0.8 c-2.2 -0.44 -4.22 -1.32 -4.22 -3.84 c0 -2.98 2.82 -3.68 5.24 -3.68 c1.34 0 2.7 0.14 4 0.46 l0 2.82 c-0.2 -0.06 -0.46 -0.1 -0.78 -0.16 c-0.34 -0.04 -0.68 -0.08 -1.06 -0.12 c-0.78 -0.08 -1.52 -0.12 -2.3 -0.12 c-0.44 0 -1.36 0 -1.78 0.16 c-0.28 0.1 -0.46 0.22 -0.46 0.54 c0 0.16 0.04 0.3 0.12 0.42 c0.08 0.14 0.22 0.24 0.4 0.34 c0.54 0.3 1.24 0.48 1.84 0.62 c0.5 0.12 1 0.26 1.52 0.4 c1.76 0.48 2.92 1.46 2.92 3.34 c0 3.1 -3.08 3.76 -5.56 3.76 c-1.36 0 -2.78 -0.1 -4.12 -0.42 z M258.752 12.74 l5.2 0 l0 2.48 l-5.2 0 l0 -2.48 z"/>
    </g>
  </g>
</svg>