<?xml version="1.0" encoding="utf-8"?>
<svg version="1.1" width="3109.6917629869977" height="3239.207058691308" viewBox="333.397 1343.508 2434.126 249.17" xmlns="http://www.w3.org/2000/svg">
  <g transform="scale(11.960352934565378) translate(10, 10)">
    <g id="SvgjsG62854" featurekey="PPkF4s-0" transform="matrix(1.1518083431410275,0,0,1.1518083431410275,18.848192480696497,97.3655847783297)" fill="#000">
      <path d="M15.52 7.199999999999999 c0.84 0.8 1.24 1.86 1.24 3.18 c0 1.4 -0.42 2.46 -1.3 3.2 c-0.86 0.74 -2.14 1.1 -3.8 1.1 l-8.32 0 l0 5.32 l-2.34 0 l0 -7.4 l10.7 0 c1.8 0 2.7 -0.74 2.7 -2.18 c0 -1.54 -0.96 -2.32 -2.86 -2.32 l-8.2 0 l0 2.68 l-2.34 0 l0 -4.78 l11.1 0.02 c1.44 0 2.58 0.4 3.42 1.18 z M31.5 8.04 c1.24 1.32 1.88 2.96 1.88 4.94 s-0.64 3.62 -1.9 4.94 c-1.42 1.52 -3.28 2.26 -5.54 2.26 c-2.24 0 -4.12 -0.76 -5.56 -2.28 c-1.24 -1.34 -1.88 -2.98 -1.88 -4.92 c0 -1.96 0.64 -3.6 1.88 -4.92 c1.44 -1.52 3.32 -2.3 5.56 -2.3 c2.28 0 4.14 0.78 5.56 2.28 z M29.64 16.7 c0.98 -0.92 1.46 -2.16 1.46 -3.72 s-0.48 -2.8 -1.46 -3.72 c-0.94 -0.94 -2.2 -1.4 -3.7 -1.4 c-1.62 0 -2.9 0.54 -3.88 1.62 c-0.86 0.94 -1.3 2.1 -1.3 3.5 c0 1.5 0.5 2.74 1.48 3.7 c0.94 0.94 2.2 1.42 3.7 1.42 c1.52 0 2.78 -0.46 3.7 -1.4 z M47.82000000000001 6 l2.3 7.76 l-1.08 3.62 l-2.7 -9.06 l-3.5 11.68 l-2.96 0 l-4.62 -14 l2.58 0 l3.54 11.72 l3.5 -11.72 l2.94 0 z M57.42 6 l-4.58 14 l-2.2 0 l0.68 -2.26 l0 0.02 l3.52 -11.76 l2.58 0 z M59.42 16.08 l0 -10.08 l12.24 0 l0 2.08 l-9.92 0 l0 3.6 l9.94 0 l0 2.08 l-9.94 0 l0 2.32 l-2.32 0 z M59.42 20 l0 -2.1 l12.24 0 l0 2.1 l-12.24 0 z M84.06 14.54 l3.74 5.46 l-2.7 0 l-8.28 -11.92 l-0.82 0 l0 11.92 l-2.32 0 l0 -14 l9.3 0 c1.46 0 2.62 0.4 3.46 1.18 c0.84 0.8 1.26 1.88 1.26 3.22 c0 1.2 -0.34 2.14 -1.04 2.86 c-0.62 0.68 -1.5 1.1 -2.6 1.28 z M79.58000000000001 8.08 l3.08 4.5 c1.78 -0.02 2.66 -0.74 2.66 -2.18 c0 -1.54 -0.98 -2.32 -2.9 -2.32 l-2.84 0 z M92.12 15.76 l0 4.24 l-2.32 0 l0 -14 l2.32 0 l0 7.26 l9.82 -7.26 l3.34 0 z M99.10000000000001 12.379999999999999 l6.96 7.62 l-3 0 l-5.72 -6.3 z M108.06000000000002 20 l0 -14 l2.32 0 l0 14 l-2.32 0 z M121.64000000000001 6 l2.32 0 l0 14 l-2.9 0 l-8.86 -9.52 l0 -3.06 l9.44 10.06 l0 -11.48 z M138.70000000000002 8.04 c1.24 1.32 1.88 2.96 1.88 4.94 s-0.64 3.62 -1.9 4.94 c-1.42 1.52 -3.28 2.26 -5.54 2.26 c-2.24 0 -4.12 -0.76 -5.56 -2.28 c-1.24 -1.34 -1.88 -2.98 -1.88 -4.92 c0 -1.96 0.64 -3.6 1.88 -4.92 c1.44 -1.52 3.32 -2.3 5.56 -2.3 c2.28 0 4.14 0.78 5.56 2.28 z M136.84000000000003 16.7 c0.98 -0.92 1.46 -2.16 1.46 -3.72 s-0.48 -2.8 -1.46 -3.72 c-0.94 -0.94 -2.2 -1.4 -3.7 -1.4 c-1.62 0 -2.9 0.54 -3.88 1.62 c-0.86 0.94 -1.3 2.1 -1.3 3.5 c0 1.5 0.5 2.74 1.48 3.7 c0.94 0.94 2.2 1.42 3.7 1.42 c1.52 0 2.78 -0.46 3.7 -1.4 z M156.52000000000004 12.780000000000001 c1.6 0.54 2.4 1.72 2.4 3.54 c0 2.46 -1.76 3.68 -5.3 3.68 l-11.16 0 l0 -2.1 l11.18 0.02 c1.94 0 2.9 -0.64 2.9 -1.92 c0 -1.36 -0.84 -2.06 -2.54 -2.06 l-9.22 0 l0 2.14 l-2.32 0 l0 -10.08 l11.32 0 c1.42 0 2.52 0.34 3.34 1.04 s1.22 1.62 1.22 2.78 c0 1.28 -0.6 2.28 -1.82 2.96 z M155.42000000000004 11.3 c0.44 -0.36 0.66 -0.82 0.66 -1.34 c0 -0.58 -0.2 -1.02 -0.58 -1.36 c-0.4 -0.34 -0.92 -0.52 -1.6 -0.52 l-9.12 0 l0 3.78 l9.04 0 c0.64 0 1.18 -0.18 1.6 -0.56 z M164.08000000000004 17.9 l10.56 0.02 l0 2.08 l-13.72 0 l0 -2.08 l13.72 -11.92 l0 2.68 z M161.10000000000005 8.1 l0 -2.1 l10.6 0 l-2.68 2.1 l-7.92 0 z"/>
    </g>
  </g>
</svg>